<?xml version="1.0" encoding="utf-8"?>
<!-- Generator: Adobe Illustrator 15.0.0, SVG Export Plug-In . SVG Version: 6.00 Build 0)  -->
<!DOCTYPE svg PUBLIC "-//W3C//DTD SVG 1.1//EN" "http://www.w3.org/Graphics/SVG/1.1/DTD/svg11.dtd">
<svg version="1.1" id="Calque_1" xmlns="http://www.w3.org/2000/svg" xmlns:xlink="http://www.w3.org/1999/xlink" x="0px" y="0px"
	 width="80px" height="80px" viewBox="0 0 80 80" enable-background="new 0 0 80 80" xml:space="preserve">
<g>
	<path fill="#000000" d="M40,79C18.495,79,1,61.505,1,40S18.495,1,40,1s39,17.495,39,39S61.505,79,40,79z M40,3.916
		C20.103,3.916,3.916,20.104,3.916,40c0,19.897,16.187,36.084,36.084,36.084c19.896,0,36.083-16.187,36.083-36.084
		C76.083,20.104,59.896,3.916,40,3.916z"/>
	<path fill="#000000" d="M29.596,44.852c2.317,4.12,4.521,8.326,6.955,12.377c1.117,1.86,3.436,2.657,5.061,0.892
		c0.418-0.455,0.697-0.991,1-1.521l3.056-5.342c3.335-5.832,6.671-11.663,10.005-17.494c0.911-1.594,1.873-3.168,2.737-4.787
		c0.568-1.063,0.843-2.374,0.298-3.504c-0.721-1.495-2.514-1.848-4.009-1.449c-2.307,0.615-4.571,1.573-6.828,2.35
		c-2.741,0.943-5.482,1.886-8.225,2.83l-0.506,0.174c-1.206,0.415-0.688,2.341,0.53,1.923l14.147-4.87
		c0.495-0.17,1.004-0.402,1.519-0.514c0.723-0.155,1.631-0.05,1.676,0.854c0.019,0.377-0.183,0.936-0.248,1.069
		c-0.651,1.305-1.46,2.552-2.184,3.817c-3.101,5.422-6.2,10.843-9.302,16.264c-1.223,2.139-2.445,4.276-3.667,6.413
		c-0.463,0.81-1.501,3.336-2.641,2.676c-0.593-0.343-0.929-1.199-1.259-1.788c-0.642-1.142-1.284-2.285-1.928-3.429l-4.2-7.471
		c-0.088-0.159-0.177-0.317-0.268-0.477C30.689,42.728,28.966,43.731,29.596,44.852"/>
	<path fill="#000000" d="M39.67,29.376c-4.292-1.446-8.583-2.893-12.875-4.34c-1.479-0.498-3.051-1.278-4.652-0.915
		c-2.06,0.466-2.58,2.638-1.897,4.414c0.267,0.694,0.698,1.331,1.066,1.974l3.718,6.518c0.637,1.114,2.358,0.111,1.721-1.007
		c-0.977-1.711-1.954-3.424-2.93-5.136c-0.521-0.912-3.232-4.599-1.003-4.859c1.204-0.142,2.651,0.666,3.743,1.034
		c2.51,0.846,5.019,1.691,7.528,2.538c1.685,0.566,3.366,1.134,5.051,1.702C40.357,31.709,40.881,29.784,39.67,29.376"/>
	<path fill="#000000" d="M31.946,40.018c-2.345,0.169-3.831,2.736-2.407,4.765c0.732,1.042,2.461,0.048,1.722-1.006
		c-0.481-0.687-0.285-1.696,0.686-1.767C33.218,41.919,33.229,39.925,31.946,40.018"/>
	<path fill="#000000" d="M53.975,40.018H34.673h-2.727c-1.283,0-1.285,1.993,0,1.993h19.301h2.728
		C55.256,42.011,55.258,40.018,53.975,40.018"/>
	<path fill="#000000" d="M56.092,41.014c0.096,1.887,1.52,3.478,3.477,3.478c1.889,0,3.478-1.588,3.478-3.478
		c0-1.888-1.589-3.476-3.478-3.476C57.611,37.538,56.188,39.129,56.092,41.014c-0.056,1.122,1.688,1.12,1.744,0
		c0.112-2.212,3.466-2.249,3.466,0c0,2.251-3.354,2.215-3.466,0C57.78,39.897,56.036,39.891,56.092,41.014"/>
</g>
</svg>
