<?xml version="1.0" encoding="utf-8"?>
<!-- Generator: Adobe Illustrator 15.0.0, SVG Export Plug-In . SVG Version: 6.00 Build 0)  -->
<!DOCTYPE svg PUBLIC "-//W3C//DTD SVG 1.1//EN" "http://www.w3.org/Graphics/SVG/1.1/DTD/svg11.dtd">
<svg version="1.1" id="Calque_1" xmlns="http://www.w3.org/2000/svg" xmlns:xlink="http://www.w3.org/1999/xlink" x="0px" y="0px"
	 width="180px" height="50px" viewBox="0 0 180 50" enable-background="new 0 0 180 50" xml:space="preserve">
<g>
	<g>
		<path fill="#90C6DE" d="M72.39,20.088h1.866l-5.373,14.903h-1.712l-5.342-14.903h1.835l3.425,9.643
			c0.394,1.108,0.707,2.186,0.938,3.231c0.245-1.101,0.564-2.198,0.959-3.292L72.39,20.088z"/>
		<path fill="#90C6DE" d="M69.075,35.264h-2.097l-5.537-15.449h2.416l3.489,9.825c0.262,0.736,0.488,1.464,0.68,2.176
			c0.2-0.747,0.435-1.496,0.701-2.238l3.469-9.763h2.447L69.075,35.264z M67.363,34.718h1.327l5.177-14.357h-1.285l-3.34,9.401
			c-0.389,1.082-0.708,2.179-0.948,3.26l-0.268,1.203l-0.266-1.203c-0.228-1.029-0.54-2.105-0.929-3.199l-3.36-9.462h-1.255
			L67.363,34.718z"/>
	</g>
	<g>
		<path fill="#90C6DE" d="M85.563,34.991h-8.309V20.088h8.309v1.54h-6.575v4.801h6.177v1.529h-6.177v5.484h6.575V34.991z"/>
		<path fill="#90C6DE" d="M85.835,35.264H76.98V19.814h8.854V21.9H79.26v4.254h6.178v2.075H79.26v4.938h6.575V35.264z
			 M77.527,34.718h7.762v-1.003h-6.575v-6.03h6.178v-0.982h-6.178v-5.348h6.575V20.36h-7.762V34.718z"/>
	</g>
	<g>
		<path fill="#90C6DE" d="M94.402,34.991h-1.733V21.627h-4.72v-1.54h11.173v1.54h-4.72V34.991z"/>
		<path fill="#90C6DE" d="M94.676,35.264h-2.279V21.9h-4.72v-2.086h11.719V21.9h-4.72V35.264z M92.942,34.718h1.187V21.354h4.72
			V20.36H88.223v0.994h4.72V34.718z"/>
	</g>
	<g>
		<path fill="#384148" d="M104.047,28.793v6.198h-1.732V20.088h4.087c1.829,0,3.179,0.35,4.053,1.05c0.874,0.7,1.31,1.753,1.31,3.16
			c0,1.971-0.999,3.303-2.997,3.996l4.047,6.697h-2.049l-3.608-6.198H104.047z M104.047,27.305h2.376c1.223,0,2.12-0.243,2.69-0.729
			c0.571-0.486,0.856-1.215,0.856-2.187c0-0.985-0.29-1.695-0.872-2.13c-0.58-0.435-1.514-0.652-2.798-0.652h-2.253V27.305z"/>
		<path fill="#384148" d="M113.298,35.264h-2.69l-3.608-6.197h-2.679v6.197h-2.279V19.814h4.36c1.883,0,3.304,0.374,4.224,1.11
			c0.937,0.75,1.412,1.885,1.412,3.373c0,1.984-0.964,3.374-2.866,4.137L113.298,35.264z M110.922,34.718h1.408l-3.972-6.571
			l0.318-0.111c1.894-0.656,2.814-1.879,2.814-3.737c0-1.333-0.396-2.296-1.208-2.947c-0.82-0.657-2.126-0.991-3.882-0.991h-3.813
			v14.357h1.187v-6.197h3.539L110.922,34.718z M106.423,27.578h-2.648v-6.244h2.525c1.357,0,2.326,0.23,2.962,0.706
			c0.651,0.487,0.981,1.278,0.981,2.349c0,1.051-0.32,1.857-0.952,2.395C108.672,27.311,107.707,27.578,106.423,27.578z
			 M104.32,27.032h2.103c1.15,0,1.996-0.223,2.514-0.663c0.512-0.436,0.76-1.083,0.76-1.979c0-0.902-0.249-1.528-0.762-1.911
			c-0.53-0.396-1.417-0.598-2.635-0.598h-1.979V27.032z"/>
	</g>
	<g>
		<path fill="#384148" d="M124.479,34.991h-8.309V20.088h8.309v1.54h-6.575v4.801h6.178v1.529h-6.178v5.484h6.575V34.991z
			 M118.77,18.64c0.326-0.421,0.677-0.931,1.055-1.529c0.377-0.598,0.674-1.118,0.893-1.56h2.059v0.214
			c-0.299,0.442-0.744,0.985-1.335,1.631c-0.591,0.646-1.105,1.146-1.539,1.499h-1.132V18.64z"/>
		<path fill="#384148" d="M124.752,35.264h-8.854V19.814h8.854V21.9h-6.575v4.254h6.177v2.075h-6.177v4.938h6.575V35.264z
			 M116.443,34.718h7.762v-1.003h-6.575v-6.03h6.178v-0.982h-6.178v-5.348h6.575V20.36h-7.762V34.718z M119.998,19.169h-1.502
			v-0.622l0.058-0.074c0.314-0.406,0.664-0.913,1.039-1.507c0.37-0.588,0.666-1.104,0.879-1.535l0.075-0.152h2.502v0.571
			l-0.047,0.069c-0.308,0.453-0.766,1.013-1.36,1.662c-0.594,0.649-1.121,1.163-1.567,1.526L119.998,19.169z M119.126,18.622h0.677
			c0.411-0.343,0.894-0.816,1.436-1.41c0.486-0.53,0.876-0.996,1.162-1.387h-1.516c-0.213,0.415-0.492,0.896-0.83,1.432
			C119.72,17.788,119.414,18.237,119.126,18.622z"/>
	</g>
	<g>
		<path fill="#384148" d="M137.139,31.026c0,1.312-0.475,2.334-1.426,3.068c-0.952,0.734-2.243,1.101-3.874,1.101
			c-1.767,0-3.125-0.228-4.077-0.683V32.84c0.611,0.259,1.278,0.463,1.997,0.612c0.722,0.15,1.435,0.225,2.142,0.225
			c1.155,0,2.025-0.219,2.609-0.658c0.585-0.438,0.876-1.048,0.876-1.83c0-0.516-0.103-0.939-0.31-1.27
			c-0.208-0.329-0.554-0.633-1.04-0.912c-0.485-0.278-1.225-0.594-2.218-0.948c-1.386-0.496-2.376-1.084-2.971-1.764
			c-0.595-0.679-0.893-1.566-0.893-2.66c0-1.148,0.432-2.063,1.295-2.742c0.863-0.68,2.005-1.02,3.425-1.02
			c1.482,0,2.844,0.271,4.088,0.816l-0.54,1.508c-1.229-0.516-2.427-0.775-3.589-0.775c-0.917,0-1.634,0.197-2.15,0.592
			c-0.517,0.394-0.774,0.941-0.774,1.641c0,0.516,0.095,0.939,0.284,1.269c0.191,0.33,0.513,0.632,0.965,0.907
			c0.451,0.275,1.143,0.58,2.073,0.912c1.564,0.558,2.64,1.156,3.228,1.794C136.846,29.178,137.139,30.006,137.139,31.026z"/>
		<path fill="#384148" d="M131.839,35.468c-1.8,0-3.211-0.239-4.195-0.71l-0.155-0.073v-2.257l0.38,0.161
			c0.593,0.251,1.248,0.452,1.946,0.596c0.698,0.145,1.4,0.219,2.086,0.219c1.089,0,1.911-0.203,2.445-0.604
			c0.517-0.387,0.768-0.914,0.768-1.611c0-0.462-0.091-0.84-0.269-1.125c-0.182-0.289-0.5-0.564-0.944-0.82
			c-0.469-0.269-1.2-0.582-2.174-0.928c-1.424-0.51-2.462-1.129-3.084-1.841c-0.637-0.727-0.961-1.683-0.961-2.84
			c0-1.231,0.471-2.226,1.399-2.957c0.908-0.716,2.117-1.078,3.594-1.078c1.513,0,2.925,0.282,4.197,0.838l0.233,0.102l-0.724,2.021
			l-0.266-0.112c-1.19-0.5-2.361-0.753-3.482-0.753c-0.852,0-1.52,0.18-1.985,0.534c-0.448,0.344-0.667,0.81-0.667,1.425
			c0,0.465,0.084,0.845,0.249,1.133c0.167,0.287,0.46,0.56,0.87,0.809c0.437,0.267,1.118,0.566,2.022,0.889
			c1.621,0.578,2.712,1.188,3.337,1.866c0.632,0.689,0.953,1.587,0.953,2.673c0,1.395-0.517,2.5-1.534,3.284
			C134.884,35.078,133.524,35.468,131.839,35.468z M128.034,34.336c0.904,0.388,2.183,0.585,3.805,0.585
			c1.562,0,2.809-0.352,3.706-1.044c0.89-0.686,1.321-1.618,1.321-2.852c0-0.957-0.265-1.71-0.809-2.303
			c-0.556-0.602-1.604-1.181-3.118-1.721c-0.939-0.335-1.654-0.65-2.123-0.937c-0.49-0.297-0.846-0.635-1.06-1.003
			c-0.213-0.372-0.321-0.845-0.321-1.406c0-0.786,0.297-1.411,0.882-1.858c0.563-0.43,1.343-0.647,2.316-0.647
			c1.109,0,2.262,0.231,3.427,0.688l0.357-0.997c-1.141-0.461-2.398-0.694-3.743-0.694c-1.35,0-2.446,0.324-3.256,0.961
			c-0.801,0.631-1.19,1.458-1.19,2.527c0,1.021,0.277,1.855,0.824,2.48c0.562,0.641,1.523,1.209,2.858,1.687
			c1.018,0.362,1.757,0.679,2.262,0.968c0.521,0.3,0.903,0.638,1.135,1.003c0.233,0.374,0.352,0.849,0.352,1.416
			c0,0.869-0.331,1.558-0.986,2.048c-0.629,0.473-1.563,0.713-2.772,0.713c-0.724,0-1.463-0.078-2.196-0.23
			c-0.589-0.122-1.148-0.281-1.67-0.477V34.336z"/>
	</g>
	<g>
		<path fill="#384148" d="M149.446,34.991h-8.308V20.088h8.308v1.54h-6.575v4.801h6.178v1.529h-6.178v5.484h6.575V34.991z"/>
		<path fill="#384148" d="M149.719,35.264h-8.854V19.814h8.854V21.9h-6.574v4.254h6.178v2.075h-6.178v4.938h6.574V35.264z
			 M141.411,34.718h7.763v-1.003h-6.575v-6.03h6.177v-0.982h-6.177v-5.348h6.575V20.36h-7.763V34.718z"/>
	</g>
	<g>
		<path fill="#384148" d="M163.066,34.991l-1.855-4.74h-5.973l-1.835,4.74h-1.754l5.893-14.964H159l5.861,14.964H163.066z
			 M160.671,28.691l-1.732-4.618c-0.225-0.585-0.456-1.302-0.693-2.151c-0.15,0.652-0.364,1.37-0.643,2.151l-1.753,4.618H160.671z"
			/>
		<path fill="#384148" d="M165.262,35.264h-2.381l-1.855-4.739h-5.6l-1.835,4.739h-2.343l6.107-15.51h1.83L165.262,35.264z
			 M163.253,34.718h1.208L158.813,20.3h-1.086l-5.677,14.418h1.166l1.834-4.74h6.347L163.253,34.718z M161.065,28.964h-5.612
			l1.895-4.988c0.271-0.761,0.484-1.475,0.631-2.115l0.24-1.048l0.289,1.036c0.231,0.828,0.463,1.543,0.686,2.126L161.065,28.964z
			 M156.245,28.418h4.031l-1.594-4.249c-0.139-0.362-0.279-0.774-0.423-1.229c-0.114,0.391-0.248,0.8-0.399,1.225L156.245,28.418z"
			/>
	</g>
	<g>
		<path fill="#384148" d="M179.113,20.088v9.643c0,1.699-0.514,3.034-1.539,4.006c-1.025,0.973-2.437,1.458-4.23,1.458
			s-3.182-0.489-4.164-1.468c-0.981-0.979-1.473-2.324-1.473-4.037v-9.603h1.732v9.725c0,1.244,0.341,2.199,1.02,2.865
			c0.679,0.667,1.678,0.999,2.997,0.999c1.258,0,2.226-0.334,2.905-1.004c0.679-0.669,1.02-1.629,1.02-2.88v-9.704H179.113z"/>
		<path fill="#384148" d="M173.344,35.468c-1.861,0-3.327-0.521-4.356-1.548c-1.031-1.028-1.554-2.451-1.554-4.23v-9.876h2.279
			v9.998c0,1.162,0.315,2.06,0.938,2.67c0.622,0.61,1.566,0.921,2.805,0.921c1.178,0,2.091-0.312,2.714-0.926
			c0.623-0.613,0.938-1.517,0.938-2.685v-9.978h2.279v9.917c0,1.769-0.547,3.184-1.625,4.205
			C176.689,34.952,175.204,35.468,173.344,35.468z M167.979,20.36v9.33c0,1.629,0.469,2.921,1.393,3.843
			c0.924,0.921,2.261,1.388,3.972,1.388c1.716,0,3.075-0.465,4.042-1.383c0.965-0.914,1.454-2.194,1.454-3.808V20.36h-1.187v9.432
			c0,1.32-0.37,2.355-1.1,3.075c-0.73,0.718-1.772,1.083-3.099,1.083c-1.387,0-2.46-0.363-3.188-1.078
			c-0.73-0.716-1.102-1.745-1.102-3.059V20.36H167.979z"/>
	</g>
	<g>
		<g>
			<path fill="#384148" stroke="#384148" stroke-width="0.75" stroke-miterlimit="10" d="M24.035,36.664"/>
			<g>
				<path fill="#384148" d="M18.089,28.598c1.404,2.498,2.74,5.048,4.217,7.503c0.678,1.127,2.082,1.611,3.067,0.541
					c0.254-0.276,0.423-0.601,0.606-0.922c0.617-1.08,1.235-2.159,1.853-3.238c2.021-3.536,4.044-7.071,6.065-10.606
					c0.553-0.966,1.136-1.92,1.66-2.903c0.344-0.645,0.511-1.439,0.181-2.125c-0.438-0.906-1.525-1.121-2.432-0.878
					c-1.397,0.373-2.771,0.953-4.139,1.424c-1.662,0.572-3.324,1.143-4.986,1.716c-0.103,0.035-0.204,0.07-0.307,0.106
					c-0.731,0.251-0.417,1.419,0.32,1.165c2.859-0.984,5.719-1.968,8.578-2.952c0.301-0.104,0.608-0.244,0.92-0.312
					c0.439-0.095,0.989-0.031,1.017,0.517c0.011,0.229-0.11,0.567-0.15,0.649c-0.395,0.792-0.886,1.547-1.323,2.315
					c-1.88,3.286-3.76,6.573-5.64,9.859c-0.741,1.296-1.482,2.593-2.224,3.889c-0.28,0.491-0.91,2.021-1.601,1.622
					c-0.359-0.208-0.563-0.727-0.763-1.083c-0.39-0.693-0.779-1.386-1.17-2.079c-0.848-1.51-1.697-3.02-2.545-4.53
					c-0.055-0.096-0.108-0.192-0.163-0.288C18.752,27.31,17.707,27.918,18.089,28.598L18.089,28.598z"/>
				<path fill="#384148" d="M24.102,37.5c-0.777,0-1.551-0.484-2.021-1.265c-0.984-1.638-1.921-3.343-2.826-4.991
					c-0.462-0.842-0.924-1.683-1.394-2.519c-0.153-0.273-0.154-0.578-0.003-0.837c0.163-0.278,0.475-0.458,0.793-0.458
					c0.297,0,0.556,0.156,0.708,0.429l3.877,6.896c0.042,0.075,0.085,0.157,0.129,0.242c0.148,0.289,0.318,0.617,0.539,0.745
					c0.035,0.021,0.067,0.031,0.101,0.031c0.336,0,0.792-0.886,0.986-1.265c0.06-0.115,0.111-0.215,0.155-0.292l7.862-13.749
					c0.147-0.257,0.301-0.513,0.453-0.77c0.298-0.498,0.605-1.013,0.864-1.531c0.034-0.07,0.131-0.358,0.123-0.52
					c-0.005-0.092-0.016-0.306-0.43-0.306c-0.085,0-0.179,0.011-0.271,0.03c-0.194,0.042-0.398,0.12-0.596,0.195
					c-0.1,0.037-0.197,0.075-0.295,0.108l-8.577,2.952c-0.496,0.172-0.981-0.143-1.07-0.666c-0.062-0.374,0.093-0.826,0.578-0.993
					l5.294-1.822c0.453-0.156,0.907-0.324,1.363-0.493c0.908-0.336,1.849-0.684,2.794-0.937c0.251-0.067,0.508-0.101,0.766-0.101
					c0.907,0,1.625,0.408,1.967,1.118c0.325,0.672,0.258,1.533-0.185,2.361c-0.351,0.655-0.726,1.298-1.103,1.94
					c-0.188,0.323-0.377,0.645-0.562,0.969l-7.985,13.963c-0.163,0.288-0.331,0.587-0.574,0.851
					C25.154,37.264,24.648,37.5,24.102,37.5z M18.651,27.953c-0.133,0-0.273,0.083-0.343,0.199
					c-0.058,0.099-0.055,0.205,0.009,0.318c0.47,0.836,0.932,1.68,1.396,2.522c0.902,1.644,1.837,3.344,2.816,4.974
					c0.625,1.041,1.88,1.338,2.651,0.499c0.202-0.22,0.349-0.479,0.504-0.754l2.082-3.641l5.904-10.325
					c0.186-0.325,0.375-0.648,0.564-0.972c0.372-0.637,0.745-1.274,1.092-1.924c0.362-0.679,0.427-1.367,0.176-1.888
					c-0.359-0.743-1.166-0.823-1.497-0.823c-0.212,0-0.424,0.028-0.632,0.083c-0.92,0.246-1.849,0.59-2.747,0.922
					c-0.459,0.17-0.917,0.34-1.374,0.497l-5.293,1.822c-0.271,0.094-0.242,0.36-0.233,0.413c0.021,0.125,0.14,0.34,0.385,0.259
					l8.577-2.952c0.092-0.032,0.186-0.067,0.279-0.103c0.215-0.082,0.438-0.167,0.671-0.217c0.722-0.156,1.302,0.157,1.332,0.76
					c0.015,0.291-0.125,0.671-0.178,0.777c-0.268,0.536-0.58,1.06-0.883,1.567c-0.151,0.253-0.303,0.507-0.447,0.762L25.6,34.477
					c-0.041,0.071-0.089,0.165-0.144,0.271c-0.317,0.617-0.797,1.548-1.451,1.548c-0.125,0-0.247-0.034-0.362-0.101
					c-0.353-0.204-0.56-0.604-0.741-0.957c-0.041-0.079-0.081-0.155-0.12-0.225l-3.876-6.896
					C18.845,28.007,18.759,27.953,18.651,27.953z"/>
			</g>
			<g>
				<path fill="#384148" d="M24.195,19.216c-2.602-0.878-5.203-1.755-7.805-2.632c-0.896-0.302-1.85-0.776-2.821-0.555
					c-1.247,0.283-1.563,1.599-1.149,2.676c0.162,0.421,0.423,0.806,0.646,1.197c0.752,1.317,1.504,2.634,2.255,3.952
					c0.386,0.675,1.43,0.067,1.043-0.61c-0.592-1.039-1.184-2.077-1.777-3.115c-0.315-0.553-1.958-2.788-0.607-2.946
					c0.73-0.085,1.608,0.404,2.271,0.627c1.521,0.513,3.042,1.026,4.563,1.538c1.021,0.344,2.041,0.688,3.063,1.032
					C24.613,20.63,24.931,19.463,24.195,19.216L24.195,19.216z"/>
				<path fill="#384148" d="M15.803,24.409c-0.297,0-0.555-0.155-0.709-0.426l-2.255-3.952c-0.056-0.097-0.113-0.193-0.171-0.291
					c-0.179-0.298-0.362-0.605-0.492-0.942c-0.272-0.711-0.249-1.487,0.064-2.076c0.263-0.492,0.702-0.819,1.271-0.948
					c0.184-0.042,0.378-0.063,0.576-0.063c0.667,0,1.299,0.231,1.909,0.455c0.161,0.06,0.319,0.117,0.477,0.17l7.806,2.632
					c0.487,0.164,0.643,0.613,0.582,0.986c-0.07,0.425-0.394,0.723-0.787,0.723l0,0c-0.093,0-0.188-0.017-0.282-0.048l-7.626-2.571
					c-0.176-0.059-0.365-0.136-0.563-0.216c-0.521-0.212-1.115-0.455-1.593-0.399c-0.215,0.025-0.254,0.108-0.268,0.135
					c-0.197,0.415,0.583,1.643,0.876,2.106c0.083,0.13,0.151,0.238,0.195,0.316l1.777,3.115c0.154,0.272,0.157,0.576,0.007,0.835
					C16.436,24.229,16.124,24.409,15.803,24.409z M14.088,16.233c-0.161,0-0.313,0.016-0.461,0.05
					c-0.416,0.095-0.737,0.332-0.926,0.685c-0.243,0.457-0.258,1.071-0.038,1.643c0.113,0.294,0.286,0.583,0.453,0.862
					c0.06,0.1,0.119,0.199,0.177,0.299l2.254,3.953c0.139,0.242,0.477,0.175,0.6-0.038c0.057-0.098,0.054-0.203-0.01-0.314
					l-1.776-3.115c-0.041-0.071-0.105-0.174-0.184-0.295c-0.621-0.979-1.202-1.987-0.905-2.609c0.08-0.17,0.263-0.381,0.677-0.43
					c0.603-0.071,1.273,0.198,1.852,0.433c0.188,0.077,0.366,0.149,0.532,0.206l7.626,2.571c0.247,0.087,0.367-0.136,0.388-0.264
					c0.012-0.073,0.03-0.317-0.233-0.407l-7.806-2.631c-0.161-0.054-0.324-0.114-0.489-0.175
					C15.249,16.449,14.662,16.233,14.088,16.233z"/>
			</g>
			<g>
				<path fill="#384148" d="M19.514,25.667c-1.422,0.103-2.323,1.66-1.459,2.889c0.443,0.631,1.491,0.028,1.043-0.61
					c-0.292-0.417-0.173-1.029,0.416-1.071C20.285,26.819,20.291,25.61,19.514,25.667L19.514,25.667z"/>
				<path fill="#384148" d="M18.559,29.084L18.559,29.084c-0.291,0-0.546-0.134-0.718-0.378c-0.44-0.628-0.51-1.377-0.188-2.055
					c0.338-0.71,1.043-1.188,1.842-1.245l0.07-0.002c0.448,0,0.772,0.324,0.789,0.788c0.016,0.427-0.268,0.903-0.822,0.943
					c-0.145,0.01-0.242,0.069-0.292,0.173c-0.065,0.138-0.037,0.334,0.071,0.487c0.18,0.256,0.206,0.55,0.073,0.806
					C19.234,28.89,18.902,29.084,18.559,29.084z M19.565,25.926c-0.645,0.045-1.184,0.409-1.44,0.949
					c-0.238,0.504-0.187,1.061,0.143,1.53c0.165,0.234,0.544,0.167,0.653-0.045c0.043-0.082,0.031-0.168-0.036-0.264
					c-0.217-0.308-0.262-0.705-0.116-1.013c0.13-0.273,0.396-0.445,0.726-0.469c0.279-0.02,0.343-0.272,0.339-0.403
					C19.83,26.125,19.798,25.926,19.565,25.926z"/>
			</g>
			<g>
				<path fill="#384148" d="M32.868,25.667c-3.9,0-7.801,0-11.701,0c-0.551,0-1.103,0-1.653,0c-0.777,0-0.779,1.208,0,1.208
					c3.9,0,7.801,0,11.701,0c0.552,0,1.103,0,1.653,0C33.646,26.875,33.647,25.667,32.868,25.667L32.868,25.667z"/>
				<path fill="#384148" d="M32.868,27.137H19.514c-0.555,0-0.845-0.435-0.845-0.865s0.29-0.865,0.845-0.865h13.354
					c0.555,0,0.845,0.435,0.845,0.865S33.423,27.137,32.868,27.137z M19.514,25.929c-0.313,0-0.323,0.308-0.323,0.343
					c0,0.058,0.016,0.343,0.323,0.343h13.354c0.313,0,0.323-0.308,0.323-0.343c0-0.058-0.016-0.343-0.323-0.343H19.514z"/>
			</g>
		</g>
		<g>
			<path fill="#384148" d="M34.794,26.271c0.058,1.143,0.92,2.108,2.108,2.108c1.144,0,2.107-0.963,2.107-2.108
				c0-1.146-0.963-2.108-2.107-2.108C35.714,24.163,34.852,25.128,34.794,26.271c-0.034,0.68,1.023,0.678,1.058,0
				c0.067-1.342,2.101-1.364,2.101,0s-2.033,1.342-2.101,0C35.817,25.594,34.76,25.59,34.794,26.271z"/>
			<path fill="#384148" d="M36.901,28.64c-1.213,0-2.2-0.912-2.353-2.169c-0.014-0.063-0.019-0.131-0.017-0.199
				c-0.002-0.07,0.003-0.137,0.017-0.201c0.153-1.257,1.141-2.168,2.353-2.168c1.285,0,2.37,1.084,2.37,2.369
				C39.271,27.556,38.187,28.64,36.901,28.64z M35.246,27.04c0.303,0.65,0.928,1.078,1.655,1.078c1.002,0,1.848-0.846,1.848-1.846
				c0-1.001-0.846-1.847-1.848-1.847c-0.728,0-1.353,0.427-1.655,1.078c0.182-0.014,0.367,0.037,0.521,0.137
				c0.594-1.022,2.446-0.801,2.446,0.632c0,1.433-1.853,1.654-2.446,0.631C35.613,27.004,35.425,27.056,35.246,27.04z
				 M36.112,26.271c0.033,0.521,0.435,0.753,0.821,0.753c0.35,0,0.758-0.198,0.758-0.753c0-0.557-0.408-0.753-0.758-0.753
				C36.547,25.518,36.146,25.751,36.112,26.271z M35.064,26.379c0.04,0.134,0.2,0.14,0.232,0.14c0.028,0,0.272-0.006,0.293-0.248
				c-0.021-0.242-0.266-0.249-0.295-0.249c-0.045,0-0.191,0.01-0.23,0.14c-0.004,0.036-0.007,0.072-0.009,0.109
				C35.058,26.307,35.061,26.343,35.064,26.379z"/>
		</g>
	</g>
	<g>
		<path fill="#384148" d="M24.612,48.738C11.523,48.738,0.874,38.089,0.874,25c0-13.089,10.649-23.738,23.738-23.738
			c13.09,0,23.738,10.649,23.738,23.738C48.351,38.089,37.702,48.738,24.612,48.738z M24.612,2.726
			C12.331,2.726,2.339,12.718,2.339,25c0,12.281,9.992,22.273,22.273,22.273c12.282,0,22.273-9.992,22.273-22.273
			C46.886,12.718,36.895,2.726,24.612,2.726z"/>
		<path fill="#384148" d="M24.612,49C11.38,49,0.613,38.233,0.613,25c0-13.233,10.767-24,23.999-24
			c13.233,0,23.999,10.766,23.999,24C48.611,38.233,37.846,49,24.612,49z M24.612,1.522C11.667,1.522,1.136,12.055,1.136,25
			c0,12.946,10.531,23.479,23.477,23.479S48.089,37.945,48.089,25C48.089,12.055,37.558,1.522,24.612,1.522z M24.612,47.534
			C12.188,47.534,2.078,37.426,2.078,25c0-12.426,10.109-22.535,22.534-22.535c12.426,0,22.535,10.109,22.535,22.535
			C47.147,37.426,37.038,47.534,24.612,47.534z M24.612,2.986C12.475,2.986,2.6,12.861,2.6,25c0,12.138,9.875,22.013,22.013,22.013
			S46.625,37.137,46.625,25C46.625,12.861,36.75,2.986,24.612,2.986z"/>
	</g>
</g>
</svg>
